# xmcd
#
# Track frame offsets:
#	150
#	25395
#	59917
#	83201
#	109548
#	127839
#	141747
#	162237
#	185789
#	203831
#
# Disc length: 3037 seconds
#
# Revision: 1
# Processed by: cddbd v1.5.2PL0 Copyright (c) Steve Scherf et al.
# Submitted via: audiograbber 1.83.01
#
DISCID=950bdb0a
DTITLE=Devastations - Yes, U
DYEAR=2007
DGENRE=Rock
TTITLE0=Black Ice
TTITLE1=Oh me, Oh my
TTITLE2=Rosa
TTITLE3=The Pest
TTITLE4=As Sparks fly upwards
TTITLE5=Mistakes
TTITLE6=The Face of Love
TTITLE7=An Avalanche of Stars
TTITLE8=The saddest Sound
TTITLE9=Misericordia
EXTD=
EXTT0=
EXTT1=
EXTT2=
EXTT3=
EXTT4=
EXTT5=
EXTT6=
EXTT7=
EXTT8=
EXTT9=
PLAYORDER=
